<?xml version="1.0" encoding="UTF-8" standalone="no"?>
<svg
   xmlns:dc="http://purl.org/dc/elements/1.1/"
   xmlns:cc="http://creativecommons.org/ns#"
   xmlns:rdf="http://www.w3.org/1999/02/22-rdf-syntax-ns#"
   xmlns:svg="http://www.w3.org/2000/svg"
   xmlns="http://www.w3.org/2000/svg"
   xmlns:sodipodi="http://sodipodi.sourceforge.net/DTD/sodipodi-0.dtd"
   xmlns:inkscape="http://www.inkscape.org/namespaces/inkscape"
   width="1024.0px"
   height="1024.0px"
   viewBox="0 0 1024.0 1024.0"
   version="1.1"
   id="SVGRoot"
   sodipodi:docname="drawing.svg"
   inkscape:version="1.0.2 (e86c870879, 2021-01-15)">
  <defs
     id="defs18">
    <inkscape:path-effect
       effect="fillet_chamfer"
       id="path-effect929"
       is_visible="true"
       lpeversion="1"
       satellites_param="F,0,0,1,0,250,0,1 @ F,0,0,1,0,250,0,1 @ F,0,0,1,0,250,0,1 @ F,0,0,1,0,250,0,1"
       unit="px"
       method="auto"
       mode="F"
       radius="250"
       chamfer_steps="1"
       flexible="false"
       use_knot_distance="true"
       apply_no_radius="true"
       apply_with_radius="true"
       only_selected="false"
       hide_knots="false" />
    <inkscape:path-effect
       effect="fillet_chamfer"
       id="path-effect888"
       is_visible="true"
       lpeversion="1"
       satellites_param="F,0,0,1,0,250,0,1 @ F,0,0,1,0,250,0,1 @ F,0,0,1,0,250,0,1 @ F,0,0,1,0,250,0,1"
       unit="px"
       method="auto"
       mode="F"
       radius="250"
       chamfer_steps="1"
       flexible="false"
       use_knot_distance="true"
       apply_no_radius="true"
       apply_with_radius="true"
       only_selected="false"
       hide_knots="false" />
  </defs>
  <sodipodi:namedview
     id="base"
     pagecolor="#ffffff"
     bordercolor="#666666"
     borderopacity="1.0"
     inkscape:pageopacity="0.0"
     inkscape:pageshadow="2"
     inkscape:zoom="0.7"
     inkscape:cx="399.25593"
     inkscape:cy="477.96016"
     inkscape:document-units="px"
     inkscape:current-layer="layer1"
     inkscape:document-rotation="0"
     showgrid="true"
     inkscape:window-width="1920"
     inkscape:window-height="1056"
     inkscape:window-x="0"
     inkscape:window-y="0"
     inkscape:window-maximized="1"
     showguides="false">
    <inkscape:grid
       type="xygrid"
       id="grid27" />
  </sodipodi:namedview>
  <metadata
     id="metadata21">
    <rdf:RDF>
      <cc:Work
         rdf:about="">
        <dc:format>image/svg+xml</dc:format>
        <dc:type
           rdf:resource="http://purl.org/dc/dcmitype/StillImage" />
        <dc:title></dc:title>
      </cc:Work>
    </rdf:RDF>
  </metadata>
  <g
     inkscape:label="Layer 1"
     inkscape:groupmode="layer"
     id="layer1">
    <path
       id="rect34-6"
       width="1024"
       height="1024"
       x="0"
       y="0"
       style="fill:#1f1d2e;fill-opacity:1"
       inkscape:path-effect="#path-effect888"
       d="m 250,0 h 524 a 250,250 45 0 1 250,250 V 774 A 250,250 135 0 1 774,1024 H 250 A 250,250 45 0 1 0,774 V 250 A 250,250 135 0 1 250,0 Z"
       sodipodi:type="rect" />
    <path
       d="m 496.08665,267.43826 c 3.49999,7.35764 6.89999,20.10023 6.89999,25.91171 v 1.43954 l -3.3,-0.42653 c -8.69999,-1.17296 -17.99998,-3.89209 -24.59997,-7.35765 -2,-1.06632 -3.9,-1.97271 -4.1,-2.07933 -0.2,-0.10664 0.1,1.59949 0.7,3.73213 2.2,8.42398 2.2,19.46045 0,28.89743 -0.6,2.23928 -0.9,4.05203 -0.9,4.05203 0.1,0 2,-0.95969 4.3,-2.13265 6.79999,-3.41224 15.99998,-5.97143 25.39997,-7.14438 l 2.6,-0.31989 -0.3,3.6255 c -1.2,10.71657 -6.89999,27.13798 -9.99999,28.09767 -1.8,0.58648 -9.09999,6.45128 -11.09999,8.90382 -4.7,5.59822 -7.39999,10.92984 -8.99999,17.75433 -0.9,3.57219 -1,3.73213 -2.8,4.15867 -1,0.26658 -2.8,1.27959 -4,2.29259 l -2.1,1.75943 -0.4,-2.02601 c -0.4,-2.82575 -2.89999,-6.07806 -5.69999,-7.46427 -4.2,-2.02602 -10.59999,-1.11965 -13.39999,1.9727 l -1,1.17294 -1.2,-2.55917 c -2.1,-4.69183 -5.89999,-6.77117 -11.39999,-6.39795 -3.4,0.26658 -6.29999,1.81276 -7.99999,4.47857 l -0.9,1.43954 -0.8,-1.54618 c -3.8,-7.251 -14.59999,-7.62423 -19.29998,-0.63979 l -1.7,2.50586 -1.5,-1.6528 c -1.9,-1.97271 -3.6,-2.87908 -6.4,-3.30561 -6.19999,-1.06632 -12.89999,4.21199 -12.89999,10.29004 0,1.49285 -0.2,1.70612 -0.9,1.38623 -3.59999,-1.54618 -5.49999,-1.91938 -7.49999,-1.65281 -6.19999,0.85306 -10.19999,5.54489 -10.19999,11.83622 0,2.29259 -0.1,2.29259 -1.4,1.81274 -3.5,-1.3329 -8.59999,-0.0533 -11.59999,2.98572 -2,2.02601 -3,4.42524 -3,7.35765 0,1.97269 -0.2,2.55917 -1.6,3.73213 -0.9,0.74643 -2.09999,1.38623 -2.79999,1.38623 -0.6,0 -1.8,0.37321 -2.7,0.85305 -1.3,0.6398 -1.6,0.69311 -1.9,0.10663 -0.1,-0.3732 -1.2,-1.70612 -2.4,-2.87907 -4.09999,-3.99872 -10.19999,-4.31862 -14.69999,-0.69311 -2.29999,1.81275 -2.59999,1.86606 -2.59999,0.58647 0,-1.59948 -2.5,-4.79846 -4.9,-6.18468 -4.6,-2.66582 -9.39999,-2.18597 -13.29999,1.33291 l -2.4,2.07933 -0.6,-1.65281 c -0.9,-2.18595 -3.39999,-4.5852 -5.69999,-5.54489 -4.4,-1.86606 -10.49999,-0.37322 -13.29999,3.19899 l -1.4,1.75943 -1.1,-1.65282 c -2.9,-4.26529 -8.69999,-6.18468 -13.29999,-4.42524 -2.4,0.95969 -6.69999,5.01173 -6.69999,6.45127 0,1.22628 -0.6,0.95969 -2.4,-0.90638 -4.3,-4.53187 -11.29999,-4.79847 -15.79999,-0.53316 -1.8,1.70613 -3.59999,4.95841 -3.59999,6.50459 0,0.63979 -0.1,1.06632 -0.3,0.95969 -5.4,-2.77244 -9.3,-2.98571 -13.19999,-0.74643 -2.5,1.49286 -4.8,4.69183 -5.4,7.62422 -0.3,1.97271 -2,2.87909 -4.5,2.50587 -4.79999,-0.79975 -10.79999,3.41225 -12.19999,8.31734 -0.69999,2.82577 -4.19999,6.71785 -6.39999,7.1977 -2.3,0.53317 -5.7,3.25229 -6.79999,5.65153 -0.7,1.17295 -1.3,3.41224 -1.4,4.90509 -0.1,1.81275 -0.7,3.78546 -1.7,5.70485 -2.2,3.9454 -5.2,12.79591 -6.2,18.23416 -0.5,2.45255 -1.1,7.51761 -1.2,11.35637 -1.12999,25.48518 8.8,52.78311 27.39998,75.97569 5,6.238 15.39999,16.7413 20.99998,21.27319 2.4,1.91939 4.5,3.6255 4.8,3.83877 0.2,0.21327 -1,0.53317 -2.7,0.74643 -1.7,0.21327 -4.39999,0.69311 -5.89999,1.11964 l -2.8,0.79974 2.7,3.8921 c 8.09999,11.88952 25.29998,27.61782 42.79996,39.40072 6.1,4.05204 6.5,4.42526 6.2,5.70485 -0.3,0.74642 -0.4,3.62551 -0.4,6.39794 0,4.69184 0.1,5.38494 1.7,8.63724 2.09999,4.10535 5.19999,7.14438 9.69999,9.33035 2.6,1.3329 3.5,1.49285 8.19999,1.49285 4.8,0 5.7,-0.15995 8.39999,-1.49285 1.6,-0.79974 4.2,-2.55919 5.6,-3.83878 2,-1.81275 2.8,-2.18596 3.5,-1.81275 0.8,0.47984 0.9,1.9727 0.9,16.20815 v 15.62168 l -1.6,0.37319 c -2.3,0.47985 -5.1,3.35892 -5.9,5.97142 -1.1,3.67882 -0.3,6.93114 2.5,9.65027 l 2.3,2.3459 -6.6,11.7296 c -3.69999,6.45125 -6.69999,11.83622 -6.69999,12.04947 0,0.15994 3,5.5982 6.69999,12.1028 l 6.6,11.83621 -2.3,2.3459 c -1.9,1.91938 -2.5,2.87907 -2.7,4.9584 -0.8,4.69187 1.3,8.69058 5.2,10.50333 2.2,0.95969 8.89999,1.01299 210.99982,1.01299 201.49984,0 208.89983,-0.0533 210.99983,-1.01299 2.6,-1.17295 3.7,-2.34593 4.8,-5.01172 1.6,-3.99872 0.7,-7.99744 -2.6,-10.92987 l -2,-1.75943 6.7,-11.78288 c 3.59999,-6.45128 6.69999,-12.0495 6.59999,-12.3694 0,-0.31989 -3,-5.75815 -6.59999,-12.04946 l -6.5,-11.46301 1.9,-1.86605 c 1,-1.01303 2.2,-2.61252 2.5,-3.57222 2.2,-5.0117 -0.9,-11.8362 -5.7,-12.79589 l -1.5,-0.3199 v -15.35507 c 0,-15.08851 0,-15.35509 1.2,-16.15484 1,-0.74642 1.3,-0.63979 3.8,1.65281 1.5,1.3329 4,3.09235 5.59999,3.83876 2.6,1.22628 3.7,1.38623 8.3,1.38623 4.79999,0 5.59999,-0.15995 8.49999,-1.54618 4,-2.02601 7.89999,-5.86478 9.69999,-9.81018 1.2,-2.6125 1.4,-3.73214 1.4,-8.10408 0,-2.77243 -0.1,-5.65152 -0.3,-6.39794 -0.4,-1.27959 0,-1.65281 6.1,-5.70485 17.59998,-11.7829 34.69997,-27.5112 42.89996,-39.40072 l 2.7,-3.8921 -2.8,-0.79974 c -1.6,-0.42653 -4.19999,-0.90637 -5.99999,-1.11964 -1.7,-0.21326 -2.9,-0.53316 -2.7,-0.74643 0.3,-0.21327 2.4,-1.91938 4.79999,-3.83877 5.7,-4.53189 15.99999,-15.03519 21.09999,-21.27319 18.69998,-23.35253 28.59997,-51.07699 27.29998,-76.77543 -0.5,-10.39668 -2.6,-18.82065 -6.9,-27.72447 -1.4,-2.9324 -2.2,-5.43826 -2.3,-7.09106 -0.2,-4.53189 -3.89999,-9.22372 -8.19999,-10.23673 -2.2,-0.53317 -5.6,-4.42526 -6.3,-7.1977 -1.29999,-4.90509 -7.39999,-9.11709 -12.09999,-8.31734 -2.49999,0.37322 -4.19999,-0.53316 -4.59999,-2.50587 -0.6,-2.93239 -2.9,-6.13136 -5.4,-7.62422 -3.79999,-2.23928 -7.79999,-2.02601 -13.09999,0.74643 -0.3,0.10663 -0.4,-0.3199 -0.4,-0.95969 0,-0.58649 -0.5,-1.97271 -1,-3.09235 -2.09999,-3.99873 -5.99999,-6.50459 -10.29999,-6.50459 -2.79999,0 -7.39999,2.13266 -8.59999,3.99874 -1,1.49284 -1.9,1.75943 -1.9,0.53315 0,-1.27959 -3.8,-5.17168 -6.09999,-6.18469 -5,-2.2926 -11.19999,-0.31989 -14.09999,4.42526 l -0.9,1.54617 -1.4,-1.86607 c -2.7,-3.62552 -8.89999,-5.11836 -13.29999,-3.2523 -2.3,0.95969 -4.79999,3.35894 -5.69999,5.54489 l -0.6,1.65281 -2.3,-2.07933 c -5.7,-5.01173 -14.29999,-3.46556 -17.69999,3.25229 l -1.2,2.50586 -1.99999,-1.54617 c -4.5,-3.57219 -10.6,-3.25229 -14.69999,0.74643 -1.2,1.17295 -2.3,2.50587 -2.4,2.87907 -0.2,0.58648 -0.6,0.53317 -1.8,-0.10663 -0.9,-0.47984 -2.1,-0.85305 -2.6,-0.85305 -0.6,0 -1.8,-0.58649 -2.89999,-1.38623 -1.5,-1.17296 -1.7,-1.6528 -1.7,-3.73213 0,-1.27959 -0.3,-3.14567 -0.7,-4.10536 -1,-2.23928 -4.5,-5.38494 -7,-6.23801 -1.9,-0.6398 -5.99999,-0.53316 -7.69999,0.21327 -0.7,0.26658 -0.8,-0.10663 -0.7,-2.02601 0.4,-3.67882 -1.8,-7.89082 -4.9,-9.86352 -4.09999,-2.61249 -7.19999,-2.66581 -12.59999,-0.31989 -0.79999,0.31989 -0.89999,0.10662 -0.89999,-1.27959 0,-5.75816 -5.2,-10.44999 -11.5,-10.39668 -3.49999,0.0533 -5.49999,0.90638 -7.89999,3.30561 l -1.5,1.6528 -1.7,-2.50586 c -4.59999,-6.93112 -15.49998,-6.61121 -19.19998,0.53317 l -0.8,1.49285 -1.8,-2.07934 c -1.1,-1.11964 -2.7,-2.45254 -3.7,-2.93239 -2.39999,-1.11965 -6.89999,-1.06633 -9.69999,0.15995 -2.5,1.11965 -5.29999,4.37192 -5.79999,6.61121 l -0.3,1.54618 -1.4,-1.38623 c -3.3,-3.09234 -8.99999,-3.89208 -13.29999,-1.86606 -2.7,1.38621 -5.3,4.63852 -5.7,7.46427 l -0.3,2.02601 -2.19999,-1.75943 c -1.1,-1.013 -3,-2.07933 -4.3,-2.39923 l -2.2,-0.6398 -1,-4.15866 c -1.1,-5.06505 -4.09999,-11.08978 -7.69999,-15.67499 -2.7,-3.35892 -8.69999,-8.47729 -12.09999,-10.1834 -3.7,-1.81276 -8.89999,-16.42141 -10.09999,-28.20432 l -0.3,-3.67882 2.6,0.37322 c 10.49999,1.38622 18.69998,3.78545 25.59997,7.46427 2.5,1.33291 4.3,2.07934 4.2,1.70612 -0.1,-0.3199 -0.8,-2.82576 -1.5,-5.43826 -2.1,-8.15739 -1.5,-20.15355 1.4,-29.96374 0.3,-1.01302 -0.1,-0.90638 -4.1,1.17295 -6.99999,3.67883 -16.79998,6.45127 -25.59997,7.35766 l -2.6,0.26657 0.4,-3.03903 c 1,-8.58392 4.09999,-19.24717 7.49999,-25.5918 0.9,-1.9194 1.7,-3.51889 1.6,-3.62551 -0.1,-0.10664 -2.2,0.31989 -4.7,1.01301 -3.79999,1.01301 -5.69999,1.22627 -13.49999,1.22627 -8.89999,0 -9.39999,-0.0533 -16.49998,-2.2926 L 493.48665,262 Z M 435.4867,405.79399 c 9.59999,1.91938 23.39998,7.51759 23.39998,9.43698 0,0.47985 -0.9,0.0533 -2.4,-1.11964 -5.79999,-4.42525 -13.89999,-2.71913 -17.19999,3.62551 l -1.29999,2.50585 -2.2,-2.07933 c -4.9,-4.47857 -10.99999,-4.26531 -15.79999,0.53317 l -2.5,2.50587 -1.2,-1.70612 c -2.29999,-3.46556 -7.19999,-5.54489 -11.09999,-4.85179 -2.2,0.42653 -6.09999,2.6125 -6.89999,3.89209 -0.5,0.85306 -0.6,0.85306 -1.1,0 -1.4,-2.39923 -3.6,-4.42525 -5.9,-5.49158 l -2.59999,-1.17296 3.99999,-1.91939 c 4.4,-2.13264 9.69999,-3.89208 15.29999,-4.9584 5.4,-1.01301 20.69998,-0.58649 27.49998,0.79974 z m 180.19985,-0.74644 c 5.79999,1.01302 10.79999,2.5592 15.69999,4.9051 l 3.89999,1.86607 -2.49999,1.22628 c -2.3,1.06633 -4.6,3.09235 -6,5.49158 -0.5,0.85306 -0.6,0.85306 -1.1,0 -0.8,-1.27959 -4.7,-3.46556 -6.89999,-3.89209 -3.9,-0.6931 -8.8,1.38623 -11.09999,4.85179 l -1.2,1.70612 -2.5,-2.50587 c -4.8,-4.79848 -10.89999,-5.01174 -15.69999,-0.53317 l -2.3,2.07933 -1.3,-2.50585 c -3.19999,-6.34464 -11.39999,-8.05076 -17.19998,-3.62551 -1.4,1.17295 -2.4,1.59949 -2.4,1.11964 0,-1.65281 11.19999,-6.50458 19.99998,-8.63724 9.8,-2.34592 22.29999,-2.98571 30.59998,-1.54618 z m -319.19974,29.05738 c 5.3,0.47985 19.39999,2.50587 19.79999,2.87908 0.1,0.0533 -0.8,2.71913 -1.9,5.91812 -4,11.40967 -5.7,22.92598 -5.2,35.18873 0.6,13.91555 3,24.36554 9.89999,43.71934 5.4,15.0352 7.9,23.13927 8.9,29.43059 l 1,5.43825 12.99998,8.69056 c 10.2,6.82448 21.49999,14.71529 23.29999,16.20815 0.1,0.10663 0,0.69311 -0.1,1.38621 -0.3,1.11965 -0.6,1.22628 -3.5,1.06634 l -3.3,-0.21326 1.1,2.87908 c 2,6.02473 6.49999,14.1288 12.09999,21.64639 l 2.8,3.89209 -2.7,-1.43953 c -3.9,-1.91938 -6.49999,-2.82577 -10.79999,-3.67883 l -3.6,-0.69311 0.3,2.18596 c 0.2,1.22628 0.9,3.51888 1.7,5.11837 l 1.3,2.87908 -1.3,1.38622 c -2.2,2.39924 -2.9,3.89209 -4.3,9.54362 l -1.3,5.49157 3.9,5.01173 c 3.9,4.9051 8.29999,8.90381 10.39999,9.59693 0.9,0.26658 1.1,0.79974 1.1,2.98571 0,3.3056 1,7.41095 1.8,7.41095 0.9,0 6.1,-2.55917 8.89999,-4.31861 2,-1.27959 2.9,-1.54617 4.1,-1.27959 0.9,0.21326 1.6,0.6398 1.6,1.01301 0,1.01301 -3.8,6.77117 -5.6,8.42396 -4.69999,4.37195 -11.69999,5.4916 -16.99998,2.82577 -4.7,-2.34593 -8.9,-7.67754 -10.79999,-13.70228 -0.5,-1.6528 -0.5,-2.23928 0.2,-3.57219 2.19999,-4.21198 1.49999,-9.65024 -1.7,-13.4357 -2.5,-2.87908 -5.4,-4.21198 -9.39999,-4.21198 -4.1,0 -7.8,1.9727 -10.1,5.22499 -1.99999,2.87908 -2.49999,7.94413 -1.1,11.56963 0.9,2.45254 4.2,5.81148 6.5,6.71785 1.1,0.42653 1.3,0.74643 1,1.97271 -0.6,2.29259 -3.8,7.14439 -5.8,8.85048 -2.2,1.81278 -6.29999,2.45257 -8.89999,1.38623 -2.9,-1.22628 -6.29999,-5.86479 -8.29999,-11.30304 -0.6,-2.07934 -0.6,-2.07934 0.5,-1.70613 0.7,0.15995 2,0.79975 3.09999,1.27959 2,1.01302 12.49999,4.79848 13.29999,4.79848 0.6,0 -2.59999,-4.47858 -5.69999,-8.31735 -2.1,-2.45255 -2.3,-2.93239 -1.8,-4.15867 0.8,-2.13265 0.6,-4.85178 -0.5,-9.5436 -0.8,-3.5722 -1.3,-4.47857 -3.6,-6.93112 -1.4,-1.49286 -3.59999,-4.21199 -4.79999,-5.97142 -2.4,-3.57219 -5.1,-6.50459 -6.6,-6.93112 -0.4,-0.15995 -1.2,-1.013 -1.6,-1.91938 -0.3,-0.90638 -1.6,-3.09235 -2.69999,-4.85178 l -2,-3.2523 -2.3,0.3199 c -3.1,0.42654 -7.69999,2.23928 -10.19999,3.83877 -1,0.74643 -2.5,1.33292 -3.4,1.33292 -1.2,0 -1.6,-0.37323 -2.7,-3.09236 -0.7,-1.65279 -2,-4.37193 -2.89999,-6.02474 -1.5,-2.66582 -1.8,-3.73213 -2.3,-9.33034 -1.8,-19.03391 -2,-32.84282 -0.6,-46.33184 0.3,-2.9324 0.6,-5.75816 0.7,-6.29133 0.1,-0.79974 -0.9,-1.38621 -5,-2.82575 -23.49998,-8.4773 -40.39997,-24.8987 -46.59996,-45.37216 -1.3,-4.21198 -1.4,-5.5449 -1.4,-12.95585 0,-9.81018 0.7,-13.38239 4.1,-20.52677 3.99999,-8.15738 10.79999,-14.50202 20.09998,-18.92728 11.99999,-5.5982 28.89998,-7.8908 46.89996,-6.39795 z m 458.79962,0.79975 c 19.29999,2.98571 32.89998,11.51632 39.19997,24.52548 3.4,7.14438 4.1,10.71659 4.1,20.52677 0,7.46428 -0.1,8.74387 -1.5,13.06248 -6.09999,20.3135 -23.09998,36.84156 -46.49996,45.26553 -4,1.43954 -5,2.02601 -4.9,2.82575 0,0.53317 0.3,3.35893 0.6,6.29133 1.4,13.38238 1.2,28.15098 -0.5,46.59842 -0.6,5.27831 -0.9,6.45127 -2.4,9.06376 -0.89999,1.65281 -2.19999,4.37195 -2.89999,6.02474 -1.1,2.71913 -1.4,3.09236 -2.7,3.09236 -0.9,0 -2.3,-0.58649 -3.4,-1.33292 -2.5,-1.5995 -7.09999,-3.41223 -10.19999,-3.83877 l -2.2,-0.3199 -2.1,3.2523 c -1.1,1.75943 -2.39999,3.89208 -2.69999,4.74515 -0.3,0.79974 -1.6,2.07933 -2.8,2.82576 -1.2,0.74642 -3.2,2.93239 -4.8,5.33162 -1.6,2.18597 -3.99999,5.27831 -5.39999,6.77117 -2.3,2.45255 -2.8,3.35892 -3.6,6.93112 -1.1,4.69182 -1.3,7.41095 -0.5,9.5436 0.5,1.22628 0.3,1.70612 -1.7,4.15867 -3.2,3.83877 -6.39999,8.31735 -5.79999,8.31735 0.9,0 10.89999,-3.62551 13.89998,-5.01174 1.6,-0.74643 3,-1.22628 3.1,-1.11964 0.4,0.37321 -1.6,5.17168 -3.3,7.94413 -2.19999,3.67882 -5.19999,5.6515 -8.39999,5.6515 -1.4,0 -3.3,-0.3732 -4.09999,-0.79974 -3.4,-1.75943 -9,-10.5033 -7.4,-11.5163 0.4,-0.26658 1,-0.47984 1.3,-0.47984 0.3,0 1.7,-0.9597 3,-2.13265 3.1,-2.77245 4.29999,-5.75817 3.99999,-10.23672 -0.3,-4.42526 -2.09999,-7.30434 -5.79999,-9.49031 -5.3,-2.9857 -11.59999,-1.91938 -15.49999,2.6125 -3.1,3.73214 -3.89999,9.22372 -1.7,13.32907 0.7,1.33291 0.7,1.86606 0,3.62551 -2.19999,6.34464 -6.29999,11.67626 -10.59999,13.75559 -1.3,0.63979 -3.69999,1.11965 -5.99999,1.22629 -3.4,0.21326 -4.2,0.0533 -6.8,-1.17298 -3.29999,-1.6528 -7.49999,-6.02472 -9.19999,-9.49028 l -1,-2.29261 1.8,-0.47985 c 1.5,-0.37321 2.1,-0.21326 4.3,1.17297 2.79999,1.81275 7.99999,4.37192 8.89999,4.37192 0.8,0 1.9,-4.10535 1.9,-7.41095 0,-2.18597 0.2,-2.71913 1,-2.98571 2.09999,-0.69312 6.49999,-4.69183 10.39999,-9.59693 l 3.99999,-5.01174 -1.19999,-4.69181 c -1.4,-5.97144 -2.2,-7.67756 -4.2,-9.91684 l -1.5,-1.86607 1.3,-2.82576 c 0.7,-1.59949 1.4,-3.89209 1.6,-5.11837 l 0.3,-2.18596 -3.6,0.69311 c -4.3,0.85306 -6.89999,1.75945 -10.79999,3.67883 l -2.7,1.43953 2.9,-3.89209 c 5.49999,-7.51759 9.99999,-15.62166 12.09999,-21.64639 l 1,-2.87908 -3.2,0.21326 c -3.2,0.15994 -3.7,-0.10664 -3.7,-1.91939 0,-0.85307 8.7,-7.1977 24.29998,-17.54105 6.5,-4.31862 11.79999,-7.94413 11.79999,-8.05077 0,-0.10662 0.4,-2.29259 0.8,-4.90509 1.2,-6.71785 3.4,-13.96887 8.5,-27.8311 6.59999,-18.18084 9.19999,-27.88441 10.39999,-39.50735 1.4,-14.3954 0,-26.65814 -4.6,-40.30711 -1.2,-3.78546 -2.2,-6.98443 -2.2,-6.98443 0.3,-0.3199 14.29999,-2.45254 18.69999,-2.82576 7.19999,-0.69311 22.09998,-0.26658 28.89997,0.74643 z m -271.79977,12.15611 c 2.4,7.78418 3.2,13.27576 3.2,22.49947 0,9.97014 -0.9,15.4084 -4,25.05864 -5.5,17.06121 -16.39999,33.96247 -30.19998,46.70505 -5.09999,4.69184 -5.29999,5.01174 -4.39999,5.8648 0.5,0.47984 4.59999,3.78545 8.99999,7.25101 8.59999,6.77117 20.09998,16.74132 28.29998,24.63212 l 5.09999,4.79847 -2.8,0.0533 c -2.69999,0 -2.79999,0 -2.79999,1.65281 0,5.27831 4.59999,16.10151 10.89999,25.75176 l 1,1.49286 -3.2,-1.59949 c -3.7,-1.86607 -9.29999,-3.62551 -13.69999,-4.31862 l -3.1,-0.42653 0.3,3.78546 c 0.2,2.07934 0.5,4.37193 0.6,5.11836 0.2,1.11964 -0.1,1.59948 -1.9,2.93239 -2.79999,1.9727 -5.49999,5.54489 -8.19999,10.66326 l -2.1,3.89209 2.6,3.73213 c 3.5,5.27831 6.4,8.42397 9.09999,10.02346 l 2.3,1.33291 -0.3,5.11836 -0.3,5.11836 1.7,-0.31991 c 2.9,-0.58646 12.39999,-4.53187 16.09999,-6.66453 l 3.49999,-2.07933 1.9,1.11964 c 1,0.63979 1.9,1.33292 1.9,1.59949 0,1.01302 -3.3,5.65153 -5.49999,7.67755 -5.2,4.85177 -10.6,6.71785 -18.29999,6.39796 -4.6,-0.15995 -5.59999,-0.37324 -9.29999,-2.13268 -4.5,-2.18595 -8.29999,-5.59819 -10.69999,-9.65023 l -1.5,-2.55917 1.1,-1.17297 c 4.19999,-4.47857 4.29999,-11.94284 0.2,-16.47473 -2.6,-2.87907 -5.4,-4.15866 -9.39999,-4.15866 -10.5,0 -15.99999,13.06248 -8.6,20.68671 l 1.7,1.70612 -1,2.02602 c -1.8,3.41224 -6.79999,7.99743 -10.79999,9.8102 -3,1.43954 -4.4,1.75944 -8.49999,1.91939 -4.2,0.21326 -5.5,0.0533 -8.3,-0.95969 -6.09999,-2.29262 -10.99999,-6.66454 -13.69998,-12.58265 l -1.6,-3.41225 1.2,-1.013 c 1.19999,-0.9597 1.19999,-0.9597 4.69999,1.38622 4.2,2.93239 10.19999,5.97142 15.29999,7.83749 l 4,1.38623 -0.4,-2.23929 c -0.2,-1.27959 -0.9,-3.67883 -1.4,-5.38494 l -1,-3.09235 1.5,-1.27959 c 1.9,-1.59948 3.89999,-5.38494 5.49999,-10.23672 l 1.2,-3.89208 -3,-4.42526 c -3.99999,-5.81147 -6.69999,-8.95714 -9.09999,-10.23673 -1.9,-1.013 -1.9,-1.11963 -2,-4.53188 -0.1,-5.43826 -0.5,-6.71785 -2.09999,-6.50459 -3.4,0.42653 -7.8,2.07935 -10.6,3.8921 -1.69999,1.11964 -3.19999,1.86607 -3.19999,1.59948 0,-0.21326 0.5,-1.75944 1,-3.41223 2.29999,-6.45127 3.59999,-16.79463 2.99999,-22.01963 l -0.4,-2.9857 -2.99999,0.21326 c -2.2,0.15994 -3.1,0.0533 -2.8,-0.3199 5.49999,-9.27703 14.19999,-18.92728 21.79998,-24.31222 1.8,-1.2796 3.3,-2.61249 3.3,-2.9324 0,-0.31989 -2.6,-2.23928 -5.7,-4.2653 -36.29997,-23.61911 -55.19995,-47.87801 -59.39995,-76.18895 -1.4,-9.38367 -0.8,-20.74003 1.4,-27.35125 0.6,-1.91939 1.4,-2.13266 4.7,-1.22628 2.99999,0.79975 17.09998,3.09235 25.49998,4.10536 9.49999,1.11963 31.19997,1.27958 41.19996,0.21326 14.49999,-1.43954 33.09997,-5.17167 45.09996,-9.01044 5.7,-1.81276 5.5,-1.97271 7.4,4.31861 z m 67.69994,-3.35892 c 20.29999,5.97142 40.09997,8.79717 61.79995,8.74386 15.49999,0 26.39998,-1.06633 42.89997,-4.2653 3.89999,-0.74643 7.39999,-1.27959 7.79999,-1.11964 0.3,0.15995 1.1,2.29259 1.7,4.74515 1.5,6.5579 1.3,21.0066 -0.2,28.5242 -5.6,25.85839 -22.79998,47.45148 -55.29996,69.31116 -4.99999,3.41224 -9.09999,6.45126 -9.09999,6.82448 0,0.31991 1.1,1.43954 2.5,2.45255 4.4,3.14567 10.39999,8.69056 13.69999,12.68927 3,3.73214 8.69999,11.67627 8.69999,12.26275 0,0.15995 -1.2,0.21326 -2.8,0.15995 l -2.89999,-0.21326 -0.4,3.03902 c -0.6,5.17168 0.8,15.51504 2.99999,21.96631 0.5,1.65279 1,3.19897 1,3.41223 0,0.26659 -1.4,-0.47984 -3.09999,-1.59949 -2.9,-1.81274 -7.3,-3.46556 -10.7,-3.89209 -1.59999,-0.21326 -1.99999,1.06633 -2.09999,6.50459 0,3.41225 -0.1,3.51888 -2,4.53188 -2.3,1.27959 -5.1,4.42526 -9,10.23673 l -3.09999,4.42526 1.3,3.89208 c 1.5,4.85178 3.49999,8.63724 5.39999,10.23672 l 1.6,1.27959 -1.1,3.09235 c -0.5,1.70611 -1.2,4.10535 -1.4,5.38494 l -0.3,2.23929 3.9,-1.38623 c 5.1,-1.86607 11.09999,-4.9051 15.39999,-7.89081 3.29999,-2.23928 3.59999,-2.34592 4.29999,-1.43954 1.2,1.27959 1.2,1.70613 -0.7,5.49158 -2.19999,4.37193 -6.29999,8.31734 -10.89999,10.60992 -3.49999,1.75944 -3.89999,1.81278 -9.79999,1.81278 -5.69999,0 -6.29999,-0.10665 -9.29999,-1.54619 -3.7,-1.86608 -7.69999,-5.38494 -10.19999,-9.11707 l -1.8,-2.61251 1.9,-1.91938 c 5.49999,-5.70484 4.29999,-14.98186 -2.4,-19.08722 -8.29999,-5.01173 -18.59999,0.9597 -18.59999,10.8232 0,2.2926 1.9,6.98443 3.3,8.15739 0.8,0.69311 0.8,0.90637 -0.2,2.9324 -1.6,3.03902 -6.29999,7.94411 -9.39999,9.59691 -4.4,2.39923 -8.19999,3.19898 -13.79999,2.93242 -4.3,-0.21329 -5.69999,-0.47985 -8.69999,-1.91939 -4.1,-1.86608 -8.59999,-5.86479 -11.09999,-9.8102 -0.9,-1.43954 -1.6,-2.66581 -1.5,-2.77244 0.1,-0.0533 1.1,-0.6398 2.2,-1.27959 l 2.09999,-1.17297 3.1,1.81276 c 5.6,3.3056 17.09999,7.83749 17.79999,7.09105 0.6,-0.47984 0.6,-4.58519 0.1,-7.35763 l -0.4,-2.50588 2.3,-1.33289 c 2.89999,-1.70612 5.89999,-4.9051 9.39999,-9.91683 l 2.7,-3.94541 -1.7,-2.9857 c -4.2,-7.41097 -6.8,-10.71657 -10.39999,-12.79592 -0.5,-0.26657 -0.5,-1.33289 0.2,-4.69181 1.19999,-6.07807 1.19999,-6.07807 -3.9,-5.1717 -4.8,0.90639 -9.59999,2.45256 -12.89999,4.26531 -1.2,0.69311 -2.4,1.22628 -2.5,1.11965 0,-0.0533 1,-1.81275 2.3,-3.83878 4.6,-7.25101 8.49999,-16.52805 9.39999,-22.55279 l 0.3,-2.23928 h -3 -2.99999 l 1.8,-1.91938 c 6.49999,-6.77117 31.79997,-28.41757 38.89996,-33.26935 1.1,-0.74644 2.1,-1.59949 2.2,-1.91939 0.2,-0.37322 -2.1,-2.82577 -4.99999,-5.54489 -13.69999,-12.68928 -24.69998,-29.43058 -30.19998,-46.1719 -5.79999,-17.32778 -5.79999,-34.65558 0,-51.02368 0.9,-2.39922 1.4,-3.03901 2,-2.77244 0.5,0.21327 4,1.27959 7.89999,2.39924 z"
       id="path934"
       style="fill:#f6c177;fill-opacity:1;stroke:none;stroke-width:0.053227" />
  </g>
</svg>
